<?xml version="1.0" standalone="no"?>
<!DOCTYPE svg PUBLIC "-//W3C//DTD SVG 20010904//EN"
 "http://www.w3.org/TR/2001/REC-SVG-20010904/DTD/svg10.dtd">
<svg version="1.0" xmlns="http://www.w3.org/2000/svg"
 width="2048.000000pt" height="2048.000000pt" viewBox="0 0 2048.000000 2048.000000"
 preserveAspectRatio="xMidYMid meet">

<g transform="translate(0.000000,2048.000000) scale(0.100000,-0.100000)"
fill="#000000" stroke="none">
<path d="M0 10240 l0 -10240 10240 0 10240 0 0 10240 0 10240 -10240 0 -10240
0 0 -10240z m2064 7609 c44 -22 161 -90 260 -149 189 -112 295 -171 586 -325
221 -117 300 -162 325 -185 23 -21 64 -43 440 -235 149 -76 324 -166 390 -200
275 -143 443 -229 670 -345 527 -269 789 -403 1180 -605 377 -194 490 -253
661 -346 100 -54 220 -117 265 -140 46 -23 116 -61 154 -84 l70 -42 2050 -4
c1128 -2 2555 -3 3173 -1 l1122 2 53 34 c28 18 115 66 192 106 77 40 259 139
405 220 377 209 554 303 1045 555 105 54 262 135 350 180 164 84 380 195 770
395 121 62 292 150 380 195 88 45 264 135 390 200 127 65 277 144 335 175 58
32 182 98 275 148 250 132 397 212 426 233 40 28 358 209 414 235 94 45 181
20 220 -62 37 -79 32 -116 -77 -514 -5 -19 -13 -51 -18 -70 -12 -52 -116 -444
-172 -650 -22 -85 -54 -206 -103 -395 -32 -124 -129 -489 -175 -660 -12 -44
-26 -96 -30 -115 -8 -33 -23 -90 -85 -325 -15 -55 -46 -174 -70 -265 -24 -91
-53 -201 -65 -245 -12 -44 -34 -129 -50 -190 -37 -142 -69 -264 -119 -450 -82
-309 -97 -365 -171 -650 -17 -66 -60 -229 -96 -363 -35 -134 -78 -296 -95
-360 -139 -535 -163 -623 -178 -650 -17 -32 -14 -107 19 -425 16 -160 34 -339
39 -397 6 -58 15 -152 21 -210 6 -58 15 -152 21 -210 24 -250 35 -362 58 -600
6 -58 15 -150 21 -205 5 -55 14 -147 20 -205 5 -58 14 -148 19 -200 6 -52 15
-142 20 -200 13 -135 48 -486 61 -615 10 -98 20 -195 40 -405 6 -58 15 -145
21 -193 17 -141 16 -247 -4 -284 -37 -70 -133 -160 -352 -333 -126 -100 -300
-236 -385 -303 -85 -67 -213 -168 -285 -225 -129 -102 -220 -174 -530 -417
-205 -162 -208 -164 -335 -265 -59 -47 -145 -114 -191 -150 -46 -36 -151 -119
-235 -185 -83 -66 -197 -156 -254 -200 -56 -44 -137 -107 -179 -141 -129 -103
-500 -395 -621 -489 -63 -50 -124 -97 -135 -106 -11 -10 -105 -85 -210 -168
-104 -82 -212 -173 -239 -200 -76 -79 -404 -344 -761 -615 -71 -55 -186 -145
-255 -201 -69 -55 -188 -150 -265 -210 -77 -60 -156 -122 -176 -139 -20 -17
-79 -64 -132 -105 -54 -41 -109 -89 -123 -108 -14 -18 -39 -41 -57 -51 -30
-16 -125 -17 -1577 -17 -1489 0 -1546 1 -1583 19 -20 10 -44 30 -53 45 -18 29
-12 24 -289 241 -108 85 -268 212 -354 281 -86 69 -235 186 -331 260 -432 333
-634 496 -760 615 -72 68 -218 186 -540 438 -36 28 -72 56 -80 63 -8 7 -73 58
-145 115 -71 56 -193 152 -270 213 -77 61 -171 135 -210 165 -38 30 -75 59
-81 65 -7 5 -35 28 -64 50 -28 22 -111 87 -183 144 -73 57 -179 140 -236 185
-56 44 -120 95 -140 111 -21 17 -55 44 -76 60 -21 17 -52 41 -69 55 -17 14
-49 39 -71 56 -22 17 -110 86 -195 153 -85 68 -236 186 -335 264 -99 78 -243
191 -320 252 -140 110 -220 174 -591 467 -183 144 -289 244 -322 305 -21 38
-25 110 -12 228 6 61 16 154 21 208 9 99 21 223 39 402 6 55 15 145 20 200 12
125 27 280 40 410 6 55 15 147 20 205 5 58 14 148 20 200 5 52 14 142 19 200
6 58 22 218 36 355 14 138 30 297 36 355 5 58 14 148 20 200 5 52 14 142 19
200 6 58 15 150 20 205 6 55 15 145 20 200 5 55 14 147 20 205 28 281 30 337
8 398 -11 31 -29 89 -38 127 -24 93 -63 242 -88 335 -11 41 -32 120 -47 175
-14 55 -35 134 -46 175 -11 41 -34 127 -50 190 -54 204 -118 448 -179 680 -17
63 -44 166 -60 228 -17 61 -43 163 -60 225 -16 61 -43 164 -60 227 -55 207
-175 664 -224 853 -13 50 -33 126 -44 167 -11 41 -32 120 -47 175 -14 55 -35
134 -46 175 -11 41 -34 127 -50 190 -37 140 -67 254 -112 425 -19 72 -51 191
-70 265 -20 74 -45 171 -57 215 -12 44 -37 139 -55 210 -19 72 -46 173 -60
225 -132 495 -137 516 -122 574 7 25 24 61 39 79 63 80 142 84 272 16z"/>
<path d="M2290 17140 c0 -14 16 -86 36 -160 19 -74 48 -184 64 -245 44 -171
76 -293 99 -375 11 -41 32 -120 46 -175 15 -55 36 -134 47 -175 11 -41 31
-117 44 -167 59 -229 74 -284 99 -378 15 -55 46 -174 70 -265 24 -91 53 -201
65 -245 12 -44 36 -138 55 -210 18 -71 45 -175 60 -230 15 -55 40 -149 56
-210 46 -172 99 -373 121 -455 11 -41 23 -91 28 -110 4 -19 15 -62 24 -95 23
-84 80 -299 133 -500 25 -93 53 -201 63 -240 10 -38 30 -113 43 -165 33 -124
68 -256 124 -465 25 -93 51 -194 58 -223 7 -29 15 -55 18 -59 5 -4 182 85 312
157 17 9 80 43 140 75 61 32 137 72 170 90 33 18 96 52 140 75 169 91 362 194
410 220 28 15 91 49 140 75 50 27 153 82 230 123 77 41 178 95 225 120 47 24
99 53 115 62 17 10 82 45 145 78 227 120 265 141 268 152 4 11 -25 45 -147
175 -161 171 -305 326 -395 425 -33 36 -89 97 -126 135 -36 39 -119 129 -185
200 -66 72 -154 166 -196 210 -41 44 -100 107 -130 140 -30 33 -152 164 -270
291 -213 230 -445 479 -699 754 -145 156 -342 369 -455 490 -39 41 -97 104
-130 140 -32 36 -93 101 -134 145 -42 44 -130 139 -196 210 -66 72 -149 162
-185 200 -92 98 -259 277 -358 385 -39 42 -42 43 -42 20z"/>
<path d="M18019 17029 c-147 -157 -460 -494 -644 -694 -71 -77 -195 -210 -274
-295 -147 -158 -206 -222 -320 -345 -36 -39 -97 -104 -136 -145 -39 -41 -120
-129 -180 -195 -61 -66 -117 -127 -125 -135 -20 -20 -139 -148 -215 -230 -79
-86 -153 -166 -315 -340 -74 -80 -158 -170 -186 -200 -27 -30 -144 -156 -260
-280 -667 -719 -824 -888 -848 -916 -30 -36 -30 -35 57 -83 31 -17 81 -44 110
-60 28 -15 126 -68 217 -116 91 -48 188 -100 215 -115 28 -15 124 -67 215
-115 91 -48 188 -100 215 -115 28 -15 95 -51 150 -80 55 -29 123 -65 150 -80
59 -32 147 -79 345 -185 80 -42 179 -95 220 -117 41 -23 102 -55 135 -73 33
-17 100 -53 148 -80 53 -28 92 -44 98 -38 5 5 24 69 43 143 55 213 84 325 177
675 44 164 71 267 119 450 17 66 42 163 56 215 14 52 37 138 50 190 43 160 65
243 81 300 8 30 19 71 23 90 8 36 43 167 80 305 12 44 38 141 57 215 20 74 51
194 70 265 19 72 47 180 63 240 44 171 76 293 99 375 11 41 32 120 46 175 15
55 36 134 47 175 11 41 31 117 44 168 13 50 35 134 48 185 14 50 38 144 55
207 32 125 97 368 131 495 12 44 26 96 30 115 4 19 15 62 24 94 9 33 15 66 14
75 -2 8 -54 -40 -129 -120z"/>
<path d="M3360 16616 c0 -7 7 -19 15 -26 8 -7 15 -20 15 -29 1 -16 58 -78 614
-677 148 -159 319 -343 380 -409 61 -66 178 -192 260 -280 206 -221 253 -271
316 -340 30 -33 116 -125 190 -205 74 -80 160 -172 190 -205 65 -71 148 -160
250 -270 90 -96 174 -186 261 -280 35 -38 92 -99 126 -135 34 -36 78 -84 98
-107 21 -24 44 -43 52 -43 7 0 22 19 32 43 92 211 324 660 446 862 78 128 102
183 92 208 -3 9 -25 26 -49 38 -24 12 -212 117 -418 234 -206 117 -485 274
-620 350 -480 270 -1235 701 -1514 865 -76 45 -216 123 -311 174 -94 51 -215
121 -269 155 -134 84 -156 95 -156 77z"/>
<path d="M17005 16564 c-61 -37 -171 -101 -245 -142 -186 -103 -371 -209 -595
-339 -217 -126 -1013 -580 -1340 -763 -121 -68 -393 -222 -605 -341 -212 -120
-397 -225 -412 -233 -18 -10 -28 -23 -28 -38 0 -13 38 -101 85 -196 47 -95 85
-175 85 -177 0 -2 46 -99 103 -217 57 -117 132 -274 167 -348 67 -142 77 -160
90 -160 7 0 268 277 589 625 36 39 120 129 186 200 187 200 542 583 604 650
30 33 87 94 126 135 143 154 303 327 361 390 32 35 124 134 204 220 80 85 226
243 325 350 99 107 233 248 298 313 65 65 117 122 115 128 -2 5 -53 -20 -113
-57z"/>
<path d="M7397 14781 l-229 -6 -17 -50 c-10 -27 -29 -75 -43 -105 -14 -30 -40
-89 -58 -130 -18 -41 -43 -99 -56 -128 -13 -29 -24 -55 -24 -57 0 -2 -11 -28
-24 -57 -13 -29 -35 -80 -49 -113 -13 -33 -55 -130 -91 -215 -67 -154 -79
-183 -109 -250 -9 -19 -64 -147 -122 -285 -122 -287 -133 -307 -213 -395 -45
-50 -82 -78 -158 -119 -91 -49 -173 -97 -569 -331 -77 -46 -153 -91 -170 -100
-16 -9 -55 -32 -85 -50 -30 -18 -120 -71 -200 -118 -166 -97 -257 -151 -420
-247 -63 -37 -128 -75 -145 -85 -16 -9 -104 -61 -195 -115 -91 -54 -178 -106
-195 -115 -80 -46 -280 -163 -360 -212 -104 -62 -147 -83 -192 -93 -18 -3 -35
-11 -38 -16 -4 -5 -10 -57 -15 -116 -13 -143 -23 -243 -64 -653 -50 -492 -56
-553 -67 -665 -5 -55 -14 -145 -19 -200 -6 -55 -15 -145 -20 -200 -15 -153
-28 -289 -40 -410 -6 -60 -15 -153 -20 -205 -5 -52 -14 -142 -20 -200 -5 -58
-14 -148 -19 -200 -5 -52 -21 -215 -36 -363 -15 -147 -25 -273 -22 -280 3 -7
130 -112 283 -232 153 -121 315 -249 360 -285 45 -36 128 -101 184 -145 57
-44 183 -143 280 -220 97 -77 235 -185 305 -240 70 -55 144 -113 164 -130 21
-16 53 -42 72 -57 97 -76 443 -348 504 -397 39 -31 88 -70 110 -87 22 -17 110
-86 195 -153 85 -68 225 -177 310 -244 85 -67 162 -127 170 -134 35 -29 337
-266 454 -358 117 -91 527 -418 1095 -873 119 -96 284 -225 366 -288 83 -63
209 -163 281 -222 72 -59 183 -150 247 -203 l117 -96 353 -5 c322 -4 1735 -4
2277 0 l225 2 135 113 c290 240 410 337 545 439 77 58 237 184 357 279 566
455 874 701 969 775 57 45 208 164 334 264 127 100 265 209 309 242 43 33 88
69 100 79 21 18 139 111 491 387 110 86 205 161 211 167 7 5 49 39 95 75 79
62 248 194 424 334 44 34 199 157 345 271 146 115 288 227 316 249 28 23 66
53 85 67 19 15 136 107 260 205 124 99 292 231 372 294 80 63 148 121 152 128
3 8 1 53 -5 100 -9 87 -20 187 -40 397 -22 219 -30 302 -40 410 -6 61 -15 151
-21 200 -9 90 -61 609 -80 805 -5 58 -14 148 -19 200 -6 52 -15 142 -20 200
-5 58 -14 150 -20 205 -6 55 -15 147 -20 205 -6 58 -15 150 -20 205 -13 123
-26 265 -39 409 -15 166 -13 160 -79 179 -31 9 -86 33 -122 55 -36 21 -132 79
-215 127 -82 48 -238 140 -345 203 -107 64 -231 136 -275 162 -44 26 -127 75
-185 110 -58 34 -125 74 -150 88 -25 14 -92 53 -150 87 -368 218 -560 331
-665 392 -66 38 -169 99 -230 135 -60 36 -130 76 -154 88 -146 74 -237 170
-302 319 -23 53 -47 110 -55 126 -14 33 -117 273 -280 655 -58 135 -111 259
-119 275 -7 17 -34 80 -60 140 -53 125 -77 178 -110 250 -13 28 -29 68 -36 90
-7 22 -19 47 -26 55 -12 13 -339 15 -2826 16 -1547 0 -2915 -2 -3040 -5z
m-1440 -4421 c34 -11 110 -43 170 -71 59 -28 153 -71 208 -96 55 -25 132 -60
170 -78 39 -18 93 -43 120 -55 28 -13 111 -51 185 -85 74 -34 160 -74 190 -87
30 -14 84 -39 120 -56 36 -16 115 -52 175 -80 61 -28 146 -67 190 -87 168 -78
380 -176 540 -248 286 -130 326 -163 333 -272 6 -92 -8 -118 -184 -346 -29
-36 -109 -141 -180 -235 -252 -334 -487 -644 -787 -1039 -71 -93 -188 -248
-261 -344 -152 -203 -186 -231 -276 -231 -69 0 -115 23 -154 79 -25 35 -30 50
-30 103 0 73 10 92 134 253 148 194 268 352 395 520 71 94 185 244 254 335 69
91 166 219 215 285 50 66 96 127 103 135 64 76 283 376 283 387 0 7 -10 17
-22 22 -13 5 -59 26 -103 46 -89 42 -148 69 -310 143 -60 27 -154 71 -208 96
-55 25 -101 46 -103 46 -2 0 -60 27 -130 60 -69 33 -128 60 -129 60 -2 0 -55
25 -120 55 -64 30 -118 55 -120 55 -2 0 -45 20 -97 44 -51 24 -118 55 -148 69
-156 71 -320 147 -360 165 -287 130 -323 162 -323 285 0 78 38 133 114 164 67
28 71 28 146 3z m8641 7 c56 -17 110 -61 128 -103 20 -48 17 -118 -6 -164 -35
-69 -42 -73 -605 -330 -225 -103 -285 -131 -380 -175 -44 -20 -129 -59 -190
-87 -60 -28 -138 -63 -172 -79 -35 -16 -93 -43 -130 -60 -38 -17 -120 -55
-183 -84 -63 -29 -145 -67 -182 -84 -38 -17 -98 -45 -135 -62 -38 -17 -92 -42
-120 -55 -33 -15 -53 -31 -53 -41 0 -9 48 -80 107 -157 237 -313 363 -479 478
-631 66 -88 179 -236 250 -330 71 -93 183 -242 250 -330 66 -88 150 -198 186
-245 88 -113 109 -156 109 -223 0 -65 -35 -125 -90 -156 -46 -26 -127 -28
-177 -5 -53 26 -35 3 -682 859 -71 94 -200 265 -288 380 -87 116 -217 287
-288 380 -158 210 -176 234 -243 317 -129 161 -144 265 -54 360 33 35 88 66
237 133 33 15 92 42 130 60 111 51 191 89 315 145 63 29 142 65 175 80 102 47
318 146 365 168 25 11 86 39 135 62 50 23 140 65 200 92 61 28 138 63 173 79
146 68 543 249 587 269 21 10 83 28 100 29 6 0 29 -5 53 -12z m-3394 -3712
c76 -36 116 -119 116 -241 0 -83 -29 -133 -119 -207 -128 -107 -368 -285 -413
-308 -46 -23 -216 -137 -224 -150 -7 -12 13 -27 311 -234 465 -324 610 -424
790 -550 94 -65 196 -136 229 -159 32 -22 65 -51 73 -63 13 -20 13 -27 -8 -69
-29 -58 -112 -134 -183 -169 -52 -26 -56 -26 -88 -11 -28 14 -210 139 -528
362 -36 25 -191 133 -345 240 -281 195 -337 234 -495 345 -47 32 -92 59 -101
59 -18 0 -28 -6 -299 -195 -102 -71 -219 -152 -260 -181 -41 -29 -95 -66 -120
-84 -76 -53 -326 -227 -510 -355 -96 -66 -199 -138 -228 -159 -30 -20 -66 -38
-81 -38 -60 -2 -187 89 -231 165 -50 87 -53 82 155 225 77 53 153 106 168 117
15 11 67 47 115 80 77 53 542 377 835 581 60 41 106 81 104 87 -5 15 -144 115
-214 153 -66 37 -314 221 -417 311 -98 85 -120 124 -119 213 1 88 18 143 55
186 34 39 60 55 101 63 15 3 448 5 961 5 867 -1 935 -3 970 -19z"/>
<path d="M10031 6239 c-84 -4 -155 -10 -158 -13 -9 -9 25 -34 286 -213 l54
-37 33 20 c53 30 264 176 298 205 l30 27 -109 6 c-222 13 -283 13 -434 5z"/>
</g>
</svg>
